<svg width="137" height="144" viewBox="0 0 137 144" fill="none" xmlns="http://www.w3.org/2000/svg">
<path fill-rule="evenodd" clip-rule="evenodd" d="M101.704 18.0408C99.7077 25.7453 91.8368 30.3747 84.1308 28.3769C76.4263 26.3792 71.7969 18.5115 73.7915 10.8006C75.7924 3.09778 83.6585 -1.53322 91.3662 0.46453C99.0722 2.46228 103.703 10.3348 101.704 18.0408Z" fill="#2E2468"/>
<path fill-rule="evenodd" clip-rule="evenodd" d="M63.3964 138.271C62.3559 142.278 58.266 144.682 54.2577 143.646C50.2494 142.606 47.8434 138.517 48.8823 134.506C49.9212 130.496 54.0112 128.095 58.0195 129.132C62.0278 130.168 64.4337 134.261 63.3964 138.271Z" fill="#2E2468"/>
<path fill-rule="evenodd" clip-rule="evenodd" d="M13.707 48.988C19.5673 50.5087 23.0842 56.4923 21.5667 62.3479C20.0492 68.2067 14.0687 71.7219 8.20996 70.2044C2.35278 68.6869 -1.16568 62.7065 0.353438 56.8477C1.87096 50.9937 7.85139 47.4752 13.707 48.988Z" fill="#2E2468"/>
<path fill-rule="evenodd" clip-rule="evenodd" d="M133.94 87.3042C136.099 87.8628 137.396 90.0639 136.834 92.2265C136.275 94.3843 134.073 95.6777 131.915 95.1175C129.757 94.5588 128.462 92.3546 129.021 90.1951C129.582 88.0373 131.783 86.7455 133.94 87.3042Z" fill="#2E2468"/>
<path fill-rule="evenodd" clip-rule="evenodd" d="M67.921 11.1528C69.8787 18.2089 65.7359 25.5196 58.6798 27.4725C51.6204 29.4238 44.313 25.2859 42.3585 18.2233C40.4055 11.164 44.5451 3.85971 51.6044 1.90679C58.6606 -0.0477387 65.9712 4.09022 67.921 11.1528Z" fill="#2E2468"/>
<path fill-rule="evenodd" clip-rule="evenodd" d="M94.8615 134.429C95.7948 137.805 93.8162 141.299 90.4402 142.235C87.0626 143.169 83.5682 141.192 82.6333 137.813C81.7001 134.437 83.6786 130.942 87.0546 130.009C90.4322 129.074 93.9267 131.051 94.8615 134.429Z" fill="#2E2468"/>
<path fill-rule="evenodd" clip-rule="evenodd" d="M8.6102 82.7593C13.8271 81.3122 19.228 84.3761 20.6719 89.5945C22.1158 94.813 19.0551 100.212 13.8383 101.655C8.6182 103.102 3.21885 100.041 1.77496 94.8242C0.332679 89.6009 3.39013 84.2016 8.6102 82.7593Z" fill="#2E2468"/>
<path fill-rule="evenodd" clip-rule="evenodd" d="M35.5293 22.5932C40.2964 27.2803 40.3588 34.9527 35.6686 39.7181C30.98 44.4868 23.3123 44.5476 18.5421 39.8574C13.775 35.1704 13.7126 27.498 18.4044 22.7325C23.0946 17.9622 30.7607 17.8982 35.5293 22.5932Z" fill="#2E2468"/>
<path fill-rule="evenodd" clip-rule="evenodd" d="M120.495 115.885C122.537 117.894 122.564 121.182 120.554 123.222C118.543 125.266 115.257 125.295 113.214 123.286C111.17 121.274 111.145 117.986 113.155 115.945C115.166 113.902 118.45 113.876 120.495 115.885Z" fill="#2E2468"/>
<path fill-rule="evenodd" clip-rule="evenodd" d="M21.6009 114.248C24.9512 110.844 30.429 110.797 33.8322 114.149C37.2371 117.501 37.2835 122.974 33.9331 126.384C30.5843 129.788 25.1065 129.835 21.7017 126.48C18.2953 123.131 18.2505 117.653 21.6009 114.248Z" fill="#2E2468"/>
</svg>
